<?xml version="1.0" encoding="UTF-8"?>
<!--Generator: Apple Native CoreSVG 123-->
<!DOCTYPE svg
PUBLIC "-//W3C//DTD SVG 1.1//EN"
       "http://www.w3.org/Graphics/SVG/1.1/DTD/svg11.dtd">
<svg version="1.1" xmlns="http://www.w3.org/2000/svg" xmlns:xlink="http://www.w3.org/1999/xlink" width="3300" height="2200">
 <!--glyph: "uni100307.medium", point size: 100.000000, font version: "Version 15.0d7e11", template writer version: "5"-->
 <g id="Notes">
  <rect height="2200" id="artboard" style="fill:white;opacity:1" width="3300" x="0" y="0"/>
  <line id="" style="fill:none;stroke:black;opacity:1;stroke-width:0.5;" x1="263" x2="3036" y1="292" y2="292"/>
  <text style="stroke:none;fill:black;font-family:-apple-system,&quot;SF Pro Display&quot;,&quot;SF Pro Text&quot;,Helvetica,sans-serif;font-weight:bold;" transform="matrix(1 0 0 1 263 322)">Weight/Scale Variations</text>
  <text style="stroke:none;fill:black;font-family:-apple-system,&quot;SF Pro Display&quot;,&quot;SF Pro Text&quot;,Helvetica,sans-serif;text-anchor:middle;" transform="matrix(1 0 0 1 559.711 322)">Ultralight</text>
  <text style="stroke:none;fill:black;font-family:-apple-system,&quot;SF Pro Display&quot;,&quot;SF Pro Text&quot;,Helvetica,sans-serif;text-anchor:middle;" transform="matrix(1 0 0 1 856.422 322)">Thin</text>
  <text style="stroke:none;fill:black;font-family:-apple-system,&quot;SF Pro Display&quot;,&quot;SF Pro Text&quot;,Helvetica,sans-serif;text-anchor:middle;" transform="matrix(1 0 0 1 1153.13 322)">Light</text>
  <text style="stroke:none;fill:black;font-family:-apple-system,&quot;SF Pro Display&quot;,&quot;SF Pro Text&quot;,Helvetica,sans-serif;text-anchor:middle;" transform="matrix(1 0 0 1 1449.84 322)">Regular</text>
  <text style="stroke:none;fill:black;font-family:-apple-system,&quot;SF Pro Display&quot;,&quot;SF Pro Text&quot;,Helvetica,sans-serif;text-anchor:middle;" transform="matrix(1 0 0 1 1746.56 322)">Medium</text>
  <text style="stroke:none;fill:black;font-family:-apple-system,&quot;SF Pro Display&quot;,&quot;SF Pro Text&quot;,Helvetica,sans-serif;text-anchor:middle;" transform="matrix(1 0 0 1 2043.27 322)">Semibold</text>
  <text style="stroke:none;fill:black;font-family:-apple-system,&quot;SF Pro Display&quot;,&quot;SF Pro Text&quot;,Helvetica,sans-serif;text-anchor:middle;" transform="matrix(1 0 0 1 2339.98 322)">Bold</text>
  <text style="stroke:none;fill:black;font-family:-apple-system,&quot;SF Pro Display&quot;,&quot;SF Pro Text&quot;,Helvetica,sans-serif;text-anchor:middle;" transform="matrix(1 0 0 1 2636.69 322)">Heavy</text>
  <text style="stroke:none;fill:black;font-family:-apple-system,&quot;SF Pro Display&quot;,&quot;SF Pro Text&quot;,Helvetica,sans-serif;text-anchor:middle;" transform="matrix(1 0 0 1 2933.4 322)">Black</text>
  <line id="" style="fill:none;stroke:black;opacity:1;stroke-width:0.5;" x1="263" x2="3036" y1="1903" y2="1903"/>
  <g id="" transform="matrix(1 0 0 1 263 1933)">
   <path d="M 9.24805 0.830078 C 13.5547 0.830078 17.1387 -2.74414 17.1387 -7.05078 C 17.1387 -11.3574 13.5449 -14.9316 9.23828 -14.9316 C 4.94141 -14.9316 1.36719 -11.3574 1.36719 -7.05078 C 1.36719 -2.74414 4.95117 0.830078 9.24805 0.830078 Z M 9.24805 -0.654297 C 5.70312 -0.654297 2.87109 -3.49609 2.87109 -7.05078 C 2.87109 -10.6055 5.69336 -13.4473 9.23828 -13.4473 C 12.793 -13.4473 15.6348 -10.6055 15.6445 -7.05078 C 15.6543 -3.49609 12.8027 -0.654297 9.24805 -0.654297 Z M 9.22852 -3.42773 C 9.69727 -3.42773 9.9707 -3.74023 9.9707 -4.25781 L 9.9707 -6.31836 L 12.1973 -6.31836 C 12.6953 -6.31836 13.0371 -6.57227 13.0371 -7.04102 C 13.0371 -7.51953 12.7148 -7.7832 12.1973 -7.7832 L 9.9707 -7.7832 L 9.9707 -10.0098 C 9.9707 -10.5273 9.69727 -10.8496 9.22852 -10.8496 C 8.75977 -10.8496 8.50586 -10.5078 8.50586 -10.0098 L 8.50586 -7.7832 L 6.29883 -7.7832 C 5.78125 -7.7832 5.44922 -7.51953 5.44922 -7.04102 C 5.44922 -6.57227 5.80078 -6.31836 6.29883 -6.31836 L 8.50586 -6.31836 L 8.50586 -4.25781 C 8.50586 -3.75977 8.75977 -3.42773 9.22852 -3.42773 Z"/>
  </g>
  <g id="" transform="matrix(1 0 0 1 281.506 1933)">
   <path d="M 11.709 2.91016 C 17.1582 2.91016 21.6699 -1.60156 21.6699 -7.05078 C 21.6699 -12.4902 17.1484 -17.0117 11.6992 -17.0117 C 6.25977 -17.0117 1.74805 -12.4902 1.74805 -7.05078 C 1.74805 -1.60156 6.26953 2.91016 11.709 2.91016 Z M 11.709 1.25 C 7.09961 1.25 3.41797 -2.44141 3.41797 -7.05078 C 3.41797 -11.6504 7.08984 -15.3516 11.6992 -15.3516 C 16.3086 -15.3516 20 -11.6504 20.0098 -7.05078 C 20.0195 -2.44141 16.3184 1.25 11.709 1.25 Z M 11.6895 -2.41211 C 12.207 -2.41211 12.5195 -2.77344 12.5195 -3.33984 L 12.5195 -6.23047 L 15.5762 -6.23047 C 16.123 -6.23047 16.5039 -6.51367 16.5039 -7.03125 C 16.5039 -7.55859 16.1426 -7.86133 15.5762 -7.86133 L 12.5195 -7.86133 L 12.5195 -10.9277 C 12.5195 -11.5039 12.207 -11.8555 11.6895 -11.8555 C 11.1719 -11.8555 10.8789 -11.4844 10.8789 -10.9277 L 10.8789 -7.86133 L 7.83203 -7.86133 C 7.26562 -7.86133 6.89453 -7.55859 6.89453 -7.03125 C 6.89453 -6.51367 7.28516 -6.23047 7.83203 -6.23047 L 10.8789 -6.23047 L 10.8789 -3.33984 C 10.8789 -2.79297 11.1719 -2.41211 11.6895 -2.41211 Z"/>
  </g>
  <g id="" transform="matrix(1 0 0 1 304.924 1933)">
   <path d="M 14.9707 5.67383 C 21.9336 5.67383 27.6953 -0.078125 27.6953 -7.04102 C 27.6953 -14.0039 21.9238 -19.7559 14.9609 -19.7559 C 8.00781 -19.7559 2.25586 -14.0039 2.25586 -7.04102 C 2.25586 -0.078125 8.01758 5.67383 14.9707 5.67383 Z M 14.9707 3.85742 C 8.93555 3.85742 4.08203 -1.00586 4.08203 -7.04102 C 4.08203 -13.0762 8.92578 -17.9395 14.9609 -17.9395 C 21.0059 -17.9395 25.8594 -13.0762 25.8691 -7.04102 C 25.8789 -1.00586 21.0156 3.85742 14.9707 3.85742 Z M 14.9512 -1.06445 C 15.5176 -1.06445 15.8691 -1.45508 15.8691 -2.06055 L 15.8691 -6.13281 L 20.1074 -6.13281 C 20.6934 -6.13281 21.1133 -6.46484 21.1133 -7.02148 C 21.1133 -7.59766 20.7227 -7.93945 20.1074 -7.93945 L 15.8691 -7.93945 L 15.8691 -12.1875 C 15.8691 -12.8027 15.5176 -13.1934 14.9512 -13.1934 C 14.3848 -13.1934 14.0625 -12.7832 14.0625 -12.1875 L 14.0625 -7.93945 L 9.83398 -7.93945 C 9.21875 -7.93945 8.80859 -7.59766 8.80859 -7.02148 C 8.80859 -6.46484 9.23828 -6.13281 9.83398 -6.13281 L 14.0625 -6.13281 L 14.0625 -2.06055 C 14.0625 -1.47461 14.3848 -1.06445 14.9512 -1.06445 Z"/>
  </g>
  <text style="stroke:none;fill:black;font-family:-apple-system,&quot;SF Pro Display&quot;,&quot;SF Pro Text&quot;,Helvetica,sans-serif;font-weight:bold;" transform="matrix(1 0 0 1 263 1953)">Design Variations</text>
  <text style="stroke:none;fill:black;font-family:-apple-system,&quot;SF Pro Display&quot;,&quot;SF Pro Text&quot;,Helvetica,sans-serif;" transform="matrix(1 0 0 1 263 1971)">Symbols are supported in up to nine weights and three scales.</text>
  <text style="stroke:none;fill:black;font-family:-apple-system,&quot;SF Pro Display&quot;,&quot;SF Pro Text&quot;,Helvetica,sans-serif;" transform="matrix(1 0 0 1 263 1989)">For optimal layout with text and other symbols, vertically align</text>
  <text style="stroke:none;fill:black;font-family:-apple-system,&quot;SF Pro Display&quot;,&quot;SF Pro Text&quot;,Helvetica,sans-serif;" transform="matrix(1 0 0 1 263 2007)">symbols with the adjacent text.</text>
  <rect height="14" id="" style="fill:#00AEEF;stroke:none;opacity:0.4;" width="3" x="776" y="1919"/>
  <g id="" transform="matrix(1 0 0 1 779 1933)">
   <path d="M 10.5273 0 L 12.373 0 L 7.17773 -14.0918 L 5.43945 -14.0918 L 0.244141 0 L 2.08984 0 L 3.50586 -4.0332 L 9.11133 -4.0332 Z M 6.2793 -11.9531 L 6.33789 -11.9531 L 8.59375 -5.52734 L 4.02344 -5.52734 Z"/>
  </g>
  <rect height="14" id="" style="fill:#00AEEF;stroke:none;opacity:0.4;" width="3" x="791.617" y="1919"/>
  <text style="stroke:none;fill:black;font-family:-apple-system,&quot;SF Pro Display&quot;,&quot;SF Pro Text&quot;,Helvetica,sans-serif;font-weight:bold;" transform="matrix(1 0 0 1 776 1953)">Margins</text>
  <text style="stroke:none;fill:black;font-family:-apple-system,&quot;SF Pro Display&quot;,&quot;SF Pro Text&quot;,Helvetica,sans-serif;" transform="matrix(1 0 0 1 776 1971)">Leading and trailing margins on the left and right side of each symbol</text>
  <text style="stroke:none;fill:black;font-family:-apple-system,&quot;SF Pro Display&quot;,&quot;SF Pro Text&quot;,Helvetica,sans-serif;" transform="matrix(1 0 0 1 776 1989)">can be adjusted by modifying the width of the blue rectangles.</text>
  <text style="stroke:none;fill:black;font-family:-apple-system,&quot;SF Pro Display&quot;,&quot;SF Pro Text&quot;,Helvetica,sans-serif;" transform="matrix(1 0 0 1 776 2007)">Modifications are automatically applied proportionally to all</text>
  <text style="stroke:none;fill:black;font-family:-apple-system,&quot;SF Pro Display&quot;,&quot;SF Pro Text&quot;,Helvetica,sans-serif;" transform="matrix(1 0 0 1 776 2025)">scales and weights.</text>
  <g id="" transform="matrix(1 0 0 1 1289 1933)">
   <path d="M 2.83203 3.11523 L 4.375 4.6582 C 5.22461 5.48828 6.19141 5.41992 7.06055 4.46289 L 17.2754 -6.66016 C 17.7051 -6.36719 18.0957 -6.37695 18.5645 -6.47461 L 19.6094 -6.68945 L 20.3027 -5.99609 L 20.2539 -5.47852 C 20.1855 -4.95117 20.3516 -4.53125 20.8496 -4.0332 L 21.6602 -3.22266 C 22.168 -2.71484 22.8223 -2.68555 23.3008 -3.16406 L 26.5527 -6.41602 C 27.0312 -6.89453 27.0117 -7.54883 26.5039 -8.05664 L 25.6836 -8.87695 C 25.1855 -9.375 24.7754 -9.55078 24.2383 -9.47266 L 23.7109 -9.41406 L 23.0566 -10.0781 L 23.3398 -11.2207 C 23.4863 -11.7871 23.3398 -12.2559 22.7148 -12.8613 L 20.3027 -15.2539 C 16.7578 -18.7793 12.2266 -18.6719 9.11133 -15.5371 C 8.69141 -15.1074 8.64258 -14.5215 8.91602 -14.0918 C 9.15039 -13.7207 9.62891 -13.4961 10.2734 -13.6621 C 11.7871 -14.043 13.3008 -13.9258 14.7852 -12.9199 L 14.1602 -11.3379 C 13.9258 -10.752 13.9453 -10.2734 14.1797 -9.83398 L 3.01758 0.439453 C 2.08008 1.30859 1.97266 2.25586 2.83203 3.11523 Z M 10.6738 -15.1465 C 13.3398 -17.1387 16.6504 -16.8262 19.0527 -14.4141 L 21.6797 -11.8066 C 21.9141 -11.5723 21.9434 -11.3867 21.8848 -11.0938 L 21.5039 -9.53125 L 23.0762 -7.95898 L 24.043 -8.04688 C 24.3262 -8.07617 24.4141 -8.05664 24.6387 -7.83203 L 25.2637 -7.20703 L 22.5098 -4.46289 L 21.8848 -5.07812 C 21.6602 -5.30273 21.6406 -5.40039 21.6699 -5.68359 L 21.7578 -6.64062 L 20.1953 -8.20312 L 18.5742 -7.89062 C 18.291 -7.83203 18.1445 -7.83203 17.9102 -8.07617 L 15.7324 -10.2539 C 15.5078 -10.4883 15.4785 -10.625 15.6055 -10.9473 L 16.5527 -13.2227 C 14.9512 -14.7559 12.8418 -15.6055 10.8008 -14.9512 C 10.7129 -14.9219 10.6445 -14.9414 10.6152 -14.9805 C 10.5859 -15.0293 10.5859 -15.0781 10.6738 -15.1465 Z M 4.10156 2.41211 C 3.61328 1.91406 3.78906 1.61133 4.12109 1.30859 L 15.0781 -8.80859 L 16.3086 -7.57812 L 6.15234 3.34961 C 5.84961 3.68164 5.46875 3.7793 5.06836 3.37891 Z"/>
  </g>
  <text style="stroke:none;fill:black;font-family:-apple-system,&quot;SF Pro Display&quot;,&quot;SF Pro Text&quot;,Helvetica,sans-serif;font-weight:bold;" transform="matrix(1 0 0 1 1289 1953)">Exporting</text>
  <text style="stroke:none;fill:black;font-family:-apple-system,&quot;SF Pro Display&quot;,&quot;SF Pro Text&quot;,Helvetica,sans-serif;" transform="matrix(1 0 0 1 1289 1971)">Symbols should be outlined when exporting to ensure the</text>
  <text style="stroke:none;fill:black;font-family:-apple-system,&quot;SF Pro Display&quot;,&quot;SF Pro Text&quot;,Helvetica,sans-serif;" transform="matrix(1 0 0 1 1289 1989)">design is preserved when submitting to Xcode.</text>
  <text id="template-version" style="stroke:none;fill:black;font-family:-apple-system,&quot;SF Pro Display&quot;,&quot;SF Pro Text&quot;,Helvetica,sans-serif;text-anchor:end;" transform="matrix(1 0 0 1 3036 1933)">Template v.1.0</text>
  <text style="stroke:none;fill:black;font-family:-apple-system,&quot;SF Pro Display&quot;,&quot;SF Pro Text&quot;,Helvetica,sans-serif;text-anchor:end;" transform="matrix(1 0 0 1 3036 1951)">Generated from line.horizontal.3</text>
  <text style="stroke:none;fill:black;font-family:-apple-system,&quot;SF Pro Display&quot;,&quot;SF Pro Text&quot;,Helvetica,sans-serif;text-anchor:end;" transform="matrix(1 0 0 1 3036 1969)">Typeset at 100 points</text>
  <text style="stroke:none;fill:black;font-family:-apple-system,&quot;SF Pro Display&quot;,&quot;SF Pro Text&quot;,Helvetica,sans-serif;" transform="matrix(1 0 0 1 263 726)">Small</text>
  <text style="stroke:none;fill:black;font-family:-apple-system,&quot;SF Pro Display&quot;,&quot;SF Pro Text&quot;,Helvetica,sans-serif;" transform="matrix(1 0 0 1 263 1156)">Medium</text>
  <text style="stroke:none;fill:black;font-family:-apple-system,&quot;SF Pro Display&quot;,&quot;SF Pro Text&quot;,Helvetica,sans-serif;" transform="matrix(1 0 0 1 263 1586)">Large</text>
 </g>
 <g id="Guides">
  <g id="H-reference" style="fill:#27AAE1;stroke:none;" transform="matrix(1 0 0 1 339 696)">
   <path d="M 54.9316 0 L 57.666 0 L 30.5664 -70.459 L 28.0762 -70.459 L 0.976562 0 L 3.66211 0 L 12.9395 -24.4629 L 45.7031 -24.4629 Z M 29.1992 -67.0898 L 29.4434 -67.0898 L 44.8242 -26.709 L 13.8184 -26.709 Z"/>
  </g>
  <line id="Baseline-S" style="fill:none;stroke:#27AAE1;opacity:1;stroke-width:0.577;" x1="263" x2="3036" y1="696" y2="696"/>
  <line id="Capline-S" style="fill:none;stroke:#27AAE1;opacity:1;stroke-width:0.577;" x1="263" x2="3036" y1="625.541" y2="625.541"/>
  <g id="H-reference" style="fill:#27AAE1;stroke:none;" transform="matrix(1 0 0 1 339 1126)">
   <path d="M 54.9316 0 L 57.666 0 L 30.5664 -70.459 L 28.0762 -70.459 L 0.976562 0 L 3.66211 0 L 12.9395 -24.4629 L 45.7031 -24.4629 Z M 29.1992 -67.0898 L 29.4434 -67.0898 L 44.8242 -26.709 L 13.8184 -26.709 Z"/>
  </g>
  <line id="Baseline-M" style="fill:none;stroke:#27AAE1;opacity:1;stroke-width:0.577;" x1="263" x2="3036" y1="1126" y2="1126"/>
  <line id="Capline-M" style="fill:none;stroke:#27AAE1;opacity:1;stroke-width:0.577;" x1="263" x2="3036" y1="1055.54" y2="1055.54"/>
  <g id="H-reference" style="fill:#27AAE1;stroke:none;" transform="matrix(1 0 0 1 339 1556)">
   <path d="M 54.9316 0 L 57.666 0 L 30.5664 -70.459 L 28.0762 -70.459 L 0.976562 0 L 3.66211 0 L 12.9395 -24.4629 L 45.7031 -24.4629 Z M 29.1992 -67.0898 L 29.4434 -67.0898 L 44.8242 -26.709 L 13.8184 -26.709 Z"/>
  </g>
  <line id="Baseline-L" style="fill:none;stroke:#27AAE1;opacity:1;stroke-width:0.577;" x1="263" x2="3036" y1="1556" y2="1556"/>
  <line id="Capline-L" style="fill:none;stroke:#27AAE1;opacity:1;stroke-width:0.577;" x1="263" x2="3036" y1="1485.54" y2="1485.54"/>
  <rect height="119.336" id="left-margin" style="fill:#00AEEF;stroke:none;opacity:0.4;" width="12.4512" x="1388" y="1030.79"/>
  <rect height="119.336" id="right-margin" style="fill:#00AEEF;stroke:none;opacity:0.4;" width="12.4512" x="1499.23" y="1030.79"/>
 </g>
 <g id="Symbols">
  <g id="Black-L" transform="matrix(1 0 0 1 2849.86 1556)">
   <path d="M 24.9023 -57.4219 L 142.188 -57.4219 C 147.119 -57.4219 151.025 -61.7188 151.025 -66.5527 C 151.025 -71.5332 147.168 -75.6836 142.188 -75.6836 L 24.9023 -75.6836 C 19.9707 -75.6836 16.0645 -71.4355 16.0645 -66.5527 C 16.0645 -61.8164 20.0195 -57.4219 24.9023 -57.4219 Z M 24.9023 -26.123 L 142.188 -26.123 C 147.119 -26.123 151.025 -30.4199 151.025 -35.2539 C 151.025 -40.2832 147.168 -44.3848 142.188 -44.3848 L 24.9023 -44.3848 C 19.9707 -44.3848 16.0645 -40.1367 16.0645 -35.2539 C 16.0645 -30.5176 20.0195 -26.123 24.9023 -26.123 Z M 24.9023 5.22461 L 142.188 5.22461 C 147.119 5.22461 151.025 0.927734 151.025 -3.90625 C 151.025 -8.93555 147.168 -13.0371 142.188 -13.0371 L 24.9023 -13.0371 C 19.9707 -13.0371 16.0645 -8.78906 16.0645 -3.90625 C 16.0645 0.830078 20.0195 5.22461 24.9023 5.22461 Z"/>
  </g>
  <g id="Heavy-L" transform="matrix(1 0 0 1 2554.12 1556)">
   <path d="M 23.7793 -57.8125 L 141.309 -57.8125 C 145.605 -57.8125 149.072 -61.5234 149.072 -65.7715 C 149.072 -70.1172 145.654 -73.6816 141.309 -73.6816 L 23.7793 -73.6816 C 19.4824 -73.6816 16.0645 -70.0195 16.0645 -65.7715 C 16.0645 -61.6211 19.5312 -57.8125 23.7793 -57.8125 Z M 23.7793 -27.2949 L 141.309 -27.2949 C 145.605 -27.2949 149.072 -31.0059 149.072 -35.2051 C 149.072 -39.5996 145.654 -43.1641 141.309 -43.1641 L 23.7793 -43.1641 C 19.4824 -43.1641 16.0645 -39.502 16.0645 -35.2051 C 16.0645 -31.0547 19.5312 -27.2949 23.7793 -27.2949 Z M 23.7793 3.32031 L 141.309 3.32031 C 145.605 3.32031 149.072 -0.390625 149.072 -4.63867 C 149.072 -8.98438 145.654 -12.5977 141.309 -12.5977 L 23.7793 -12.5977 C 19.4824 -12.5977 16.0645 -8.93555 16.0645 -4.63867 C 16.0645 -0.488281 19.5312 3.32031 23.7793 3.32031 Z"/>
  </g>
  <g id="Bold-L" transform="matrix(1 0 0 1 2258.53 1556)">
   <path d="M 22.5098 -58.3008 L 140.332 -58.3008 C 143.945 -58.3008 146.826 -61.3281 146.826 -64.8926 C 146.826 -68.5059 143.994 -71.4844 140.332 -71.4844 L 22.5098 -71.4844 C 18.8965 -71.4844 16.0645 -68.457 16.0645 -64.8926 C 16.0645 -61.377 18.9453 -58.3008 22.5098 -58.3008 Z M 22.5098 -28.5645 L 140.332 -28.5645 C 143.945 -28.5645 146.826 -31.6406 146.826 -35.1562 C 146.826 -38.8672 143.994 -41.7969 140.332 -41.7969 L 22.5098 -41.7969 C 18.8965 -41.7969 16.0645 -38.7695 16.0645 -35.1562 C 16.0645 -31.6895 18.9453 -28.5645 22.5098 -28.5645 Z M 22.5098 1.17188 L 140.332 1.17188 C 143.945 1.17188 146.826 -1.85547 146.826 -5.46875 C 146.826 -9.08203 143.994 -12.0605 140.332 -12.0605 L 22.5098 -12.0605 C 18.8965 -12.0605 16.0645 -9.0332 16.0645 -5.46875 C 16.0645 -1.95312 18.9453 1.17188 22.5098 1.17188 Z"/>
  </g>
  <g id="Semibold-L" transform="matrix(1 0 0 1 1962.58 1556)">
   <path d="M 21.6797 -58.5938 L 139.648 -58.5938 C 142.773 -58.5938 145.312 -61.1816 145.312 -64.3066 C 145.312 -67.4316 142.822 -69.9707 139.648 -69.9707 L 21.6797 -69.9707 C 18.5547 -69.9707 16.0645 -67.3828 16.0645 -64.3066 C 16.0645 -61.2305 18.5547 -58.5938 21.6797 -58.5938 Z M 21.6797 -29.4434 L 139.648 -29.4434 C 142.773 -29.4434 145.312 -32.0801 145.312 -35.1562 C 145.312 -38.3301 142.822 -40.8691 139.648 -40.8691 L 21.6797 -40.8691 C 18.5547 -40.8691 16.0645 -38.2812 16.0645 -35.1562 C 16.0645 -32.0801 18.5547 -29.4434 21.6797 -29.4434 Z M 21.6797 -0.292969 L 139.648 -0.292969 C 142.773 -0.292969 145.312 -2.88086 145.312 -6.00586 C 145.312 -9.17969 142.822 -11.7188 139.648 -11.7188 L 21.6797 -11.7188 C 18.5547 -11.7188 16.0645 -9.13086 16.0645 -6.00586 C 16.0645 -2.92969 18.5547 -0.292969 21.6797 -0.292969 Z"/>
  </g>
  <g id="Medium-L" transform="matrix(1 0 0 1 1666.45 1556)">
   <path d="M 20.9961 -58.8379 L 139.16 -58.8379 C 141.895 -58.8379 144.141 -61.084 144.141 -63.8184 C 144.141 -66.6016 141.943 -68.7988 139.16 -68.7988 L 20.9961 -68.7988 C 18.2617 -68.7988 16.0645 -66.5527 16.0645 -63.8184 C 16.0645 -61.1328 18.2617 -58.8379 20.9961 -58.8379 Z M 20.9961 -30.127 L 139.16 -30.127 C 141.895 -30.127 144.141 -32.373 144.141 -35.1074 C 144.141 -37.9395 141.943 -40.1367 139.16 -40.1367 L 20.9961 -40.1367 C 18.2617 -40.1367 16.0645 -37.8906 16.0645 -35.1074 C 16.0645 -32.4219 18.2617 -30.127 20.9961 -30.127 Z M 20.9961 -1.41602 L 139.16 -1.41602 C 141.895 -1.41602 144.141 -3.66211 144.141 -6.44531 C 144.141 -9.22852 141.943 -11.4258 139.16 -11.4258 L 20.9961 -11.4258 C 18.2617 -11.4258 16.0645 -9.17969 16.0645 -6.44531 C 16.0645 -3.71094 18.2617 -1.41602 20.9961 -1.41602 Z"/>
  </g>
  <g id="Regular-L" transform="matrix(1 0 0 1 1370.5 1556)">
   <path d="M 20.166 -59.1797 L 138.477 -59.1797 C 140.771 -59.1797 142.627 -60.9863 142.627 -63.2324 C 142.627 -65.5273 140.771 -67.334 138.477 -67.334 L 20.166 -67.334 C 17.8711 -67.334 16.0645 -65.5273 16.0645 -63.2324 C 16.0645 -60.9863 17.8711 -59.1797 20.166 -59.1797 Z M 20.166 -31.0059 L 138.477 -31.0059 C 140.771 -31.0059 142.627 -32.8125 142.627 -35.1074 C 142.627 -37.4023 140.771 -39.209 138.477 -39.209 L 20.166 -39.209 C 17.8711 -39.209 16.0645 -37.4023 16.0645 -35.1074 C 16.0645 -32.8125 17.8711 -31.0059 20.166 -31.0059 Z M 20.166 -2.88086 L 138.477 -2.88086 C 140.771 -2.88086 142.627 -4.6875 142.627 -7.03125 C 142.627 -9.27734 140.771 -11.084 138.477 -11.084 L 20.166 -11.084 C 17.8711 -11.084 16.0645 -9.27734 16.0645 -7.03125 C 16.0645 -4.6875 17.8711 -2.88086 20.166 -2.88086 Z"/>
  </g>
  <g id="Light-L" transform="matrix(1 0 0 1 1074.42 1556)">
   <path d="M 19.2383 -60.9375 L 138.184 -60.9375 C 139.941 -60.9375 141.357 -62.3535 141.357 -64.0625 C 141.357 -65.8203 139.941 -67.2363 138.184 -67.2363 L 19.2383 -67.2363 C 17.4805 -67.2363 16.0645 -65.8203 16.0645 -64.0625 C 16.0645 -62.3535 17.4805 -60.9375 19.2383 -60.9375 Z M 19.2383 -31.8848 L 138.184 -31.8848 C 139.941 -31.8848 141.357 -33.3008 141.357 -35.0586 C 141.357 -36.8164 139.941 -38.2324 138.184 -38.2324 L 19.2383 -38.2324 C 17.4805 -38.2324 16.0645 -36.8164 16.0645 -35.0586 C 16.0645 -33.3008 17.4805 -31.8848 19.2383 -31.8848 Z M 19.2383 -2.83203 L 138.184 -2.83203 C 139.941 -2.83203 141.357 -4.24805 141.357 -6.00586 C 141.357 -7.76367 139.941 -9.17969 138.184 -9.17969 L 19.2383 -9.17969 C 17.4805 -9.17969 16.0645 -7.76367 16.0645 -6.00586 C 16.0645 -4.24805 17.4805 -2.83203 19.2383 -2.83203 Z"/>
  </g>
  <g id="Thin-L" transform="matrix(1 0 0 1 778.541 1556)">
   <path d="M 18.0176 -63.2812 L 137.793 -63.2812 C 138.818 -63.2812 139.697 -64.1602 139.697 -65.1855 C 139.697 -66.2598 138.818 -67.1387 137.793 -67.1387 L 18.0176 -67.1387 C 16.9434 -67.1387 16.0645 -66.2598 16.0645 -65.1855 C 16.0645 -64.1602 16.9434 -63.2812 18.0176 -63.2812 Z M 18.0176 -33.0566 L 137.793 -33.0566 C 138.818 -33.0566 139.697 -33.8867 139.697 -34.9609 C 139.697 -36.0352 138.818 -36.9141 137.793 -36.9141 L 18.0176 -36.9141 C 16.9434 -36.9141 16.0645 -36.0352 16.0645 -34.9609 C 16.0645 -33.8867 16.9434 -33.0566 18.0176 -33.0566 Z M 18.0176 -2.7832 L 137.793 -2.7832 C 138.818 -2.7832 139.697 -3.66211 139.697 -4.73633 C 139.697 -5.81055 138.818 -6.64062 137.793 -6.64062 L 18.0176 -6.64062 C 16.9434 -6.64062 16.0645 -5.81055 16.0645 -4.73633 C 16.0645 -3.66211 16.9434 -2.7832 18.0176 -2.7832 Z"/>
  </g>
  <g id="Ultralight-L" transform="matrix(1 0 0 1 482.245 1556)">
   <path d="M 17.3828 -64.502 L 137.549 -64.502 C 138.281 -64.502 138.867 -65.0879 138.867 -65.7715 C 138.867 -66.5039 138.281 -67.0898 137.549 -67.0898 L 17.3828 -67.0898 C 16.6504 -67.0898 16.0645 -66.5039 16.0645 -65.7715 C 16.0645 -65.0879 16.6504 -64.502 17.3828 -64.502 Z M 17.3828 -33.6426 L 137.549 -33.6426 C 138.281 -33.6426 138.867 -34.2285 138.867 -34.9121 C 138.867 -35.6445 138.281 -36.2305 137.549 -36.2305 L 17.3828 -36.2305 C 16.6504 -36.2305 16.0645 -35.6445 16.0645 -34.9121 C 16.0645 -34.2285 16.6504 -33.6426 17.3828 -33.6426 Z M 17.3828 -2.7832 L 137.549 -2.7832 C 138.281 -2.7832 138.867 -3.36914 138.867 -4.05273 C 138.867 -4.78516 138.281 -5.37109 137.549 -5.37109 L 17.3828 -5.37109 C 16.6504 -5.37109 16.0645 -4.78516 16.0645 -4.05273 C 16.0645 -3.36914 16.6504 -2.7832 17.3828 -2.7832 Z"/>
  </g>
  <g id="Black-M" transform="matrix(1 0 0 1 2867.65 1126)">
   <path d="M 20.3125 -52.7832 L 111.182 -52.7832 C 115.625 -52.7832 119.043 -56.7383 119.043 -60.9863 C 119.043 -65.4785 115.674 -69.1895 111.182 -69.1895 L 20.3125 -69.1895 C 15.918 -69.1895 12.4512 -65.332 12.4512 -60.9863 C 12.4512 -56.8359 15.9668 -52.7832 20.3125 -52.7832 Z M 20.3125 -27.0508 L 111.182 -27.0508 C 115.625 -27.0508 119.043 -30.957 119.043 -35.2539 C 119.043 -39.7461 115.674 -43.457 111.182 -43.457 L 20.3125 -43.457 C 15.918 -43.457 12.4512 -39.5996 12.4512 -35.2539 C 12.4512 -31.1035 15.9668 -27.0508 20.3125 -27.0508 Z M 20.3125 -1.26953 L 111.182 -1.26953 C 115.625 -1.26953 119.043 -5.17578 119.043 -9.47266 C 119.043 -13.916 115.674 -17.6758 111.182 -17.6758 L 20.3125 -17.6758 C 15.918 -17.6758 12.4512 -13.8184 12.4512 -9.47266 C 12.4512 -5.32227 15.9668 -1.26953 20.3125 -1.26953 Z"/>
  </g>
  <g id="Heavy-M" transform="matrix(1 0 0 1 2571.85 1126)">
   <path d="M 19.3359 -52.7832 L 110.303 -52.7832 C 114.16 -52.7832 117.236 -56.1523 117.236 -59.9121 C 117.236 -63.8184 114.209 -67.041 110.303 -67.041 L 19.3359 -67.041 C 15.4785 -67.041 12.4512 -63.7207 12.4512 -59.9121 C 12.4512 -56.25 15.5273 -52.7832 19.3359 -52.7832 Z M 19.3359 -28.125 L 110.303 -28.125 C 114.16 -28.125 117.236 -31.4941 117.236 -35.2539 C 117.236 -39.1602 114.209 -42.3828 110.303 -42.3828 L 19.3359 -42.3828 C 15.4785 -42.3828 12.4512 -39.0625 12.4512 -35.2539 C 12.4512 -31.5918 15.5273 -28.125 19.3359 -28.125 Z M 19.3359 -3.36914 L 110.303 -3.36914 C 114.16 -3.36914 117.236 -6.73828 117.236 -10.498 C 117.236 -14.4043 114.209 -17.627 110.303 -17.627 L 19.3359 -17.627 C 15.4785 -17.627 12.4512 -14.3066 12.4512 -10.498 C 12.4512 -6.83594 15.5273 -3.36914 19.3359 -3.36914 Z"/>
  </g>
  <g id="Bold-M" transform="matrix(1 0 0 1 2276.18 1126)">
   <path d="M 18.2129 -52.7832 L 109.375 -52.7832 C 112.598 -52.7832 115.137 -55.5664 115.137 -58.7402 C 115.137 -62.0117 112.598 -64.6484 109.375 -64.6484 L 18.2129 -64.6484 C 14.9902 -64.6484 12.4512 -61.9141 12.4512 -58.7402 C 12.4512 -55.6152 15.0391 -52.7832 18.2129 -52.7832 Z M 18.2129 -29.248 L 109.375 -29.248 C 112.598 -29.248 115.137 -32.0312 115.137 -35.2051 C 115.137 -38.4766 112.598 -41.1621 109.375 -41.1621 L 18.2129 -41.1621 C 14.9902 -41.1621 12.4512 -38.4277 12.4512 -35.2051 C 12.4512 -32.1289 15.0391 -29.248 18.2129 -29.248 Z M 18.2129 -5.71289 L 109.375 -5.71289 C 112.598 -5.71289 115.137 -8.49609 115.137 -11.6699 C 115.137 -14.9414 112.598 -17.627 109.375 -17.627 L 18.2129 -17.627 C 14.9902 -17.627 12.4512 -14.8926 12.4512 -11.6699 C 12.4512 -8.54492 15.0391 -5.71289 18.2129 -5.71289 Z"/>
  </g>
  <g id="Semibold-M" transform="matrix(1 0 0 1 1980.18 1126)">
   <path d="M 17.4805 -52.7832 L 108.691 -52.7832 C 111.475 -52.7832 113.721 -55.127 113.721 -57.9102 C 113.721 -60.7422 111.523 -63.0371 108.691 -63.0371 L 17.4805 -63.0371 C 14.6484 -63.0371 12.4512 -60.6934 12.4512 -57.9102 C 12.4512 -55.1758 14.6973 -52.7832 17.4805 -52.7832 Z M 17.4805 -30.0781 L 108.691 -30.0781 C 111.475 -30.0781 113.721 -32.4219 113.721 -35.2051 C 113.721 -38.0371 111.523 -40.332 108.691 -40.332 L 17.4805 -40.332 C 14.6484 -40.332 12.4512 -37.9883 12.4512 -35.2051 C 12.4512 -32.4707 14.6973 -30.0781 17.4805 -30.0781 Z M 17.4805 -7.32422 L 108.691 -7.32422 C 111.475 -7.32422 113.721 -9.7168 113.721 -12.5 C 113.721 -15.332 111.523 -17.627 108.691 -17.627 L 17.4805 -17.627 C 14.6484 -17.627 12.4512 -15.2832 12.4512 -12.5 C 12.4512 -9.76562 14.6973 -7.32422 17.4805 -7.32422 Z"/>
  </g>
  <g id="Medium-M" transform="matrix(1 0 0 1 1684.01 1126)">
   <path d="M 16.8945 -52.7832 L 108.154 -52.7832 C 110.645 -52.7832 112.646 -54.834 112.646 -57.2754 C 112.646 -59.7656 110.645 -61.7676 108.154 -61.7676 L 16.8945 -61.7676 C 14.4043 -61.7676 12.4512 -59.7168 12.4512 -57.2754 C 12.4512 -54.834 14.4043 -52.7832 16.8945 -52.7832 Z M 16.8945 -30.6641 L 108.154 -30.6641 C 110.645 -30.6641 112.646 -32.7148 112.646 -35.1562 C 112.646 -37.6953 110.645 -39.6973 108.154 -39.6973 L 16.8945 -39.6973 C 14.4043 -39.6973 12.4512 -37.6953 12.4512 -35.1562 C 12.4512 -32.7637 14.4043 -30.6641 16.8945 -30.6641 Z M 16.8945 -8.59375 L 108.154 -8.59375 C 110.645 -8.59375 112.646 -10.5957 112.646 -13.1348 C 112.646 -15.5762 110.645 -17.627 108.154 -17.627 L 16.8945 -17.627 C 14.4043 -17.627 12.4512 -15.5762 12.4512 -13.1348 C 12.4512 -10.6445 14.4043 -8.59375 16.8945 -8.59375 Z"/>
  </g>
  <g id="Regular-M" transform="matrix(1 0 0 1 1388 1126)">
   <path d="M 16.1133 -52.7832 L 107.52 -52.7832 C 109.57 -52.7832 111.23 -54.3945 111.23 -56.4453 C 111.23 -58.4961 109.57 -60.1562 107.52 -60.1562 L 16.1133 -60.1562 C 14.0625 -60.1562 12.4512 -58.4961 12.4512 -56.4453 C 12.4512 -54.3945 14.0625 -52.7832 16.1133 -52.7832 Z M 16.1133 -31.4941 L 107.52 -31.4941 C 109.57 -31.4941 111.23 -33.1055 111.23 -35.1562 C 111.23 -37.2559 109.57 -38.916 107.52 -38.916 L 16.1133 -38.916 C 14.0625 -38.916 12.4512 -37.2559 12.4512 -35.1562 C 12.4512 -33.1055 14.0625 -31.4941 16.1133 -31.4941 Z M 16.1133 -10.1562 L 107.52 -10.1562 C 109.57 -10.1562 111.23 -11.8164 111.23 -13.916 C 111.23 -15.9668 109.57 -17.5781 107.52 -17.5781 L 16.1133 -17.5781 C 14.0625 -17.5781 12.4512 -15.9668 12.4512 -13.916 C 12.4512 -11.8164 14.0625 -10.1562 16.1133 -10.1562 Z"/>
  </g>
  <g id="Light-M" transform="matrix(1 0 0 1 1091.85 1126)">
   <path d="M 15.332 -54.3457 L 107.227 -54.3457 C 108.838 -54.3457 110.107 -55.6152 110.107 -57.2266 C 110.107 -58.7891 108.838 -60.0586 107.227 -60.0586 L 15.332 -60.0586 C 13.7207 -60.0586 12.4512 -58.7891 12.4512 -57.2266 C 12.4512 -55.6152 13.7207 -54.3457 15.332 -54.3457 Z M 15.332 -32.2266 L 107.227 -32.2266 C 108.838 -32.2266 110.107 -33.4961 110.107 -35.1074 C 110.107 -36.7188 108.838 -37.9883 107.227 -37.9883 L 15.332 -37.9883 C 13.7207 -37.9883 12.4512 -36.7188 12.4512 -35.1074 C 12.4512 -33.4961 13.7207 -32.2266 15.332 -32.2266 Z M 15.332 -10.1562 L 107.227 -10.1562 C 108.838 -10.1562 110.107 -11.4258 110.107 -13.0371 C 110.107 -14.6484 108.838 -15.918 107.227 -15.918 L 15.332 -15.918 C 13.7207 -15.918 12.4512 -14.6484 12.4512 -13.0371 C 12.4512 -11.4258 13.7207 -10.1562 15.332 -10.1562 Z"/>
  </g>
  <g id="Thin-M" transform="matrix(1 0 0 1 795.875 1126)">
   <path d="M 14.209 -56.4453 L 106.885 -56.4453 C 107.812 -56.4453 108.643 -57.2266 108.643 -58.2031 C 108.643 -59.1797 107.812 -59.9609 106.885 -59.9609 L 14.209 -59.9609 C 13.2324 -59.9609 12.4512 -59.1797 12.4512 -58.2031 C 12.4512 -57.2266 13.2324 -56.4453 14.209 -56.4453 Z M 14.209 -33.3008 L 106.885 -33.3008 C 107.812 -33.3008 108.643 -34.082 108.643 -35.0586 C 108.643 -36.0352 107.812 -36.8164 106.885 -36.8164 L 14.209 -36.8164 C 13.2324 -36.8164 12.4512 -36.0352 12.4512 -35.0586 C 12.4512 -34.082 13.2324 -33.3008 14.209 -33.3008 Z M 14.209 -10.1074 L 106.885 -10.1074 C 107.812 -10.1074 108.643 -10.8887 108.643 -11.8652 C 108.643 -12.8418 107.812 -13.623 106.885 -13.623 L 14.209 -13.623 C 13.2324 -13.623 12.4512 -12.8418 12.4512 -11.8652 C 12.4512 -10.8887 13.2324 -10.1074 14.209 -10.1074 Z"/>
  </g>
  <g id="Ultralight-M" transform="matrix(1 0 0 1 499.555 1126)">
   <path d="M 13.6719 -57.5195 L 106.689 -57.5195 C 107.324 -57.5195 107.861 -58.0566 107.861 -58.7402 C 107.861 -59.375 107.324 -59.9609 106.689 -59.9609 L 13.6719 -59.9609 C 12.9883 -59.9609 12.4512 -59.375 12.4512 -58.7402 C 12.4512 -58.0566 12.9883 -57.5195 13.6719 -57.5195 Z M 13.6719 -33.7891 L 106.689 -33.7891 C 107.324 -33.7891 107.861 -34.3262 107.861 -35.0098 C 107.861 -35.6445 107.324 -36.2305 106.689 -36.2305 L 13.6719 -36.2305 C 12.9883 -36.2305 12.4512 -35.6445 12.4512 -35.0098 C 12.4512 -34.3262 12.9883 -33.7891 13.6719 -33.7891 Z M 13.6719 -10.0586 L 106.689 -10.0586 C 107.324 -10.0586 107.861 -10.6445 107.861 -11.2793 C 107.861 -11.9629 107.324 -12.5 106.689 -12.5 L 13.6719 -12.5 C 12.9883 -12.5 12.4512 -11.9629 12.4512 -11.2793 C 12.4512 -10.6445 12.9883 -10.0586 13.6719 -10.0586 Z"/>
  </g>
  <g id="Black-S" transform="matrix(1 0 0 1 2881.94 696)">
   <path d="M 15.8691 -48.9746 L 87.0605 -48.9746 C 90.4785 -48.9746 93.1641 -52.002 93.1641 -55.3223 C 93.1641 -58.7891 90.5273 -61.6699 87.0605 -61.6699 L 15.8691 -61.6699 C 12.4512 -61.6699 9.76562 -58.6914 9.76562 -55.3223 C 9.76562 -52.0996 12.5 -48.9746 15.8691 -48.9746 Z M 15.8691 -28.9062 L 87.0605 -28.9062 C 90.4785 -28.9062 93.1641 -31.9336 93.1641 -35.2539 C 93.1641 -38.7207 90.5273 -41.6016 87.0605 -41.6016 L 15.8691 -41.6016 C 12.4512 -41.6016 9.76562 -38.623 9.76562 -35.2539 C 9.76562 -32.0312 12.5 -28.9062 15.8691 -28.9062 Z M 15.8691 -8.78906 L 87.0605 -8.78906 C 90.4785 -8.78906 93.1641 -11.8164 93.1641 -15.1367 C 93.1641 -18.6035 90.5273 -21.4844 87.0605 -21.4844 L 15.8691 -21.4844 C 12.4512 -21.4844 9.76562 -18.5059 9.76562 -15.1367 C 9.76562 -11.9141 12.5 -8.78906 15.8691 -8.78906 Z"/>
  </g>
  <g id="Heavy-S" transform="matrix(1 0 0 1 2585.86 696)">
   <path d="M 15.1855 -48.7793 L 86.4258 -48.7793 C 89.4531 -48.7793 91.8945 -51.4648 91.8945 -54.3945 C 91.8945 -57.5195 89.502 -60.0586 86.4258 -60.0586 L 15.1855 -60.0586 C 12.1582 -60.0586 9.76562 -57.4219 9.76562 -54.3945 C 9.76562 -51.5137 12.207 -48.7793 15.1855 -48.7793 Z M 15.1855 -29.6387 L 86.4258 -29.6387 C 89.4531 -29.6387 91.8945 -32.2754 91.8945 -35.2539 C 91.8945 -38.3301 89.502 -40.8691 86.4258 -40.8691 L 15.1855 -40.8691 C 12.1582 -40.8691 9.76562 -38.2812 9.76562 -35.2539 C 9.76562 -32.3242 12.207 -29.6387 15.1855 -29.6387 Z M 15.1855 -10.4004 L 86.4258 -10.4004 C 89.4531 -10.4004 91.8945 -13.0371 91.8945 -16.0156 C 91.8945 -19.1406 89.502 -21.6797 86.4258 -21.6797 L 15.1855 -21.6797 C 12.1582 -21.6797 9.76562 -19.043 9.76562 -16.0156 C 9.76562 -13.1348 12.207 -10.4004 15.1855 -10.4004 Z"/>
  </g>
  <g id="Bold-S" transform="matrix(1 0 0 1 2289.88 696)">
   <path d="M 14.4531 -48.584 L 85.7422 -48.584 C 88.3301 -48.584 90.4297 -50.8301 90.4297 -53.418 C 90.4297 -56.0547 88.3789 -58.2031 85.7422 -58.2031 L 14.4531 -58.2031 C 11.8164 -58.2031 9.76562 -56.0059 9.76562 -53.418 C 9.76562 -50.8789 11.8652 -48.584 14.4531 -48.584 Z M 14.4531 -30.4199 L 85.7422 -30.4199 C 88.3301 -30.4199 90.4297 -32.666 90.4297 -35.2051 C 90.4297 -37.8906 88.3789 -40.0879 85.7422 -40.0879 L 14.4531 -40.0879 C 11.8164 -40.0879 9.76562 -37.8418 9.76562 -35.2051 C 9.76562 -32.7148 11.8652 -30.4199 14.4531 -30.4199 Z M 14.4531 -12.207 L 85.7422 -12.207 C 88.3301 -12.207 90.4297 -14.4531 90.4297 -17.041 C 90.4297 -19.6777 88.3789 -21.875 85.7422 -21.875 L 14.4531 -21.875 C 11.8164 -21.875 9.76562 -19.6289 9.76562 -17.041 C 9.76562 -14.502 11.8652 -12.207 14.4531 -12.207 Z"/>
  </g>
  <g id="Semibold-S" transform="matrix(1 0 0 1 1993.66 696)">
   <path d="M 13.9648 -48.4375 L 85.2539 -48.4375 C 87.5488 -48.4375 89.4531 -50.3906 89.4531 -52.6855 C 89.4531 -55.0781 87.5977 -56.9824 85.2539 -56.9824 L 13.9648 -56.9824 C 11.6211 -56.9824 9.76562 -55.0293 9.76562 -52.6855 C 9.76562 -50.4395 11.6211 -48.4375 13.9648 -48.4375 Z M 13.9648 -30.957 L 85.2539 -30.957 C 87.5488 -30.957 89.4531 -32.9102 89.4531 -35.2051 C 89.4531 -37.5977 87.5977 -39.502 85.2539 -39.502 L 13.9648 -39.502 C 11.6211 -39.502 9.76562 -37.5488 9.76562 -35.2051 C 9.76562 -32.959 11.6211 -30.957 13.9648 -30.957 Z M 13.9648 -13.4277 L 85.2539 -13.4277 C 87.5488 -13.4277 89.4531 -15.3809 89.4531 -17.7246 C 89.4531 -20.1172 87.5977 -22.0215 85.2539 -22.0215 L 13.9648 -22.0215 C 11.6211 -22.0215 9.76562 -20.0684 9.76562 -17.7246 C 9.76562 -15.4297 11.6211 -13.4277 13.9648 -13.4277 Z"/>
  </g>
  <g id="Medium-S" transform="matrix(1 0 0 1 1697.31 696)">
   <path d="M 13.5742 -48.3398 L 84.8633 -48.3398 C 86.9629 -48.3398 88.7207 -50.0977 88.7207 -52.1973 C 88.7207 -54.2969 87.0117 -56.0059 84.8633 -56.0059 L 13.5742 -56.0059 C 11.4258 -56.0059 9.76562 -54.2969 9.76562 -52.1973 C 9.76562 -50.0977 11.4746 -48.3398 13.5742 -48.3398 Z M 13.5742 -31.3477 L 84.8633 -31.3477 C 86.9629 -31.3477 88.7207 -33.1055 88.7207 -35.2051 C 88.7207 -37.3535 87.0117 -39.0625 84.8633 -39.0625 L 13.5742 -39.0625 C 11.4258 -39.0625 9.76562 -37.3535 9.76562 -35.2051 C 9.76562 -33.1055 11.4746 -31.3477 13.5742 -31.3477 Z M 13.5742 -14.4043 L 84.8633 -14.4043 C 86.9629 -14.4043 88.7207 -16.1133 88.7207 -18.2617 C 88.7207 -20.4102 87.0117 -22.1191 84.8633 -22.1191 L 13.5742 -22.1191 C 11.4258 -22.1191 9.76562 -20.3613 9.76562 -18.2617 C 9.76562 -16.1621 11.4746 -14.4043 13.5742 -14.4043 Z"/>
  </g>
  <g id="Regular-S" transform="matrix(1 0 0 1 1401.11 696)">
   <path d="M 13.0371 -48.1934 L 84.375 -48.1934 C 86.2305 -48.1934 87.6953 -49.6582 87.6953 -51.4648 C 87.6953 -53.3203 86.2305 -54.7852 84.375 -54.7852 L 13.0371 -54.7852 C 11.2305 -54.7852 9.76562 -53.3203 9.76562 -51.4648 C 9.76562 -49.6582 11.2305 -48.1934 13.0371 -48.1934 Z M 13.0371 -31.8848 L 84.375 -31.8848 C 86.2305 -31.8848 87.6953 -33.3496 87.6953 -35.2051 C 87.6953 -37.0605 86.2305 -38.5254 84.375 -38.5254 L 13.0371 -38.5254 C 11.2305 -38.5254 9.76562 -37.0605 9.76562 -35.2051 C 9.76562 -33.3496 11.2305 -31.8848 13.0371 -31.8848 Z M 13.0371 -15.625 L 84.375 -15.625 C 86.2305 -15.625 87.6953 -17.0898 87.6953 -18.9453 C 87.6953 -20.8008 86.2305 -22.2656 84.375 -22.2656 L 13.0371 -22.2656 C 11.2305 -22.2656 9.76562 -20.8008 9.76562 -18.9453 C 9.76562 -17.0898 11.2305 -15.625 13.0371 -15.625 Z"/>
  </g>
  <g id="Light-S" transform="matrix(1 0 0 1 1104.89 696)">
   <path d="M 12.3047 -49.6094 L 84.1309 -49.6094 C 85.5469 -49.6094 86.7188 -50.7324 86.7188 -52.1484 C 86.7188 -53.5645 85.5469 -54.7363 84.1309 -54.7363 L 12.3047 -54.7363 C 10.8887 -54.7363 9.76562 -53.5645 9.76562 -52.1484 C 9.76562 -50.7324 10.8887 -49.6094 12.3047 -49.6094 Z M 12.3047 -32.6172 L 84.1309 -32.6172 C 85.5469 -32.6172 86.7188 -33.7402 86.7188 -35.1562 C 86.7188 -36.6211 85.5469 -37.7441 84.1309 -37.7441 L 12.3047 -37.7441 C 10.8887 -37.7441 9.76562 -36.6211 9.76562 -35.1562 C 9.76562 -33.7402 10.8887 -32.6172 12.3047 -32.6172 Z M 12.3047 -15.5762 L 84.1309 -15.5762 C 85.5469 -15.5762 86.7188 -16.748 86.7188 -18.1641 C 86.7188 -19.5801 85.5469 -20.752 84.1309 -20.752 L 12.3047 -20.752 C 10.8887 -20.752 9.76562 -19.5801 9.76562 -18.1641 C 9.76562 -16.748 10.8887 -15.5762 12.3047 -15.5762 Z"/>
  </g>
  <g id="Thin-S" transform="matrix(1 0 0 1 808.839 696)">
   <path d="M 11.377 -51.4648 L 83.7891 -51.4648 C 84.668 -51.4648 85.4004 -52.1484 85.4004 -53.0273 C 85.4004 -53.9062 84.668 -54.6387 83.7891 -54.6387 L 11.377 -54.6387 C 10.498 -54.6387 9.76562 -53.9062 9.76562 -53.0273 C 9.76562 -52.1484 10.498 -51.4648 11.377 -51.4648 Z M 11.377 -33.4961 L 83.7891 -33.4961 C 84.668 -33.4961 85.4004 -34.2285 85.4004 -35.1074 C 85.4004 -35.9863 84.668 -36.7188 83.7891 -36.7188 L 11.377 -36.7188 C 10.498 -36.7188 9.76562 -35.9863 9.76562 -35.1074 C 9.76562 -34.2285 10.498 -33.4961 11.377 -33.4961 Z M 11.377 -15.5762 L 83.7891 -15.5762 C 84.668 -15.5762 85.4004 -16.2598 85.4004 -17.1387 C 85.4004 -18.0176 84.668 -18.75 83.7891 -18.75 L 11.377 -18.75 C 10.498 -18.75 9.76562 -18.0176 9.76562 -17.1387 C 9.76562 -16.2598 10.498 -15.5762 11.377 -15.5762 Z"/>
  </g>
  <g id="Ultralight-S" transform="matrix(1 0 0 1 512.47 696)">
   <path d="M 10.8398 -52.4414 L 83.6426 -52.4414 C 84.2285 -52.4414 84.7168 -52.9297 84.7168 -53.5156 C 84.7168 -54.1016 84.2285 -54.5898 83.6426 -54.5898 L 10.8398 -54.5898 C 10.2539 -54.5898 9.76562 -54.1016 9.76562 -53.5156 C 9.76562 -52.9297 10.2539 -52.4414 10.8398 -52.4414 Z M 10.8398 -33.9844 L 83.6426 -33.9844 C 84.2285 -33.9844 84.7168 -34.4727 84.7168 -35.0586 C 84.7168 -35.6445 84.2285 -36.1816 83.6426 -36.1816 L 10.8398 -36.1816 C 10.2539 -36.1816 9.76562 -35.6445 9.76562 -35.0586 C 9.76562 -34.4727 10.2539 -33.9844 10.8398 -33.9844 Z M 10.8398 -15.5273 L 83.6426 -15.5273 C 84.2285 -15.5273 84.7168 -16.0156 84.7168 -16.6016 C 84.7168 -17.2363 84.2285 -17.7246 83.6426 -17.7246 L 10.8398 -17.7246 C 10.2539 -17.7246 9.76562 -17.2363 9.76562 -16.6016 C 9.76562 -16.0156 10.2539 -15.5273 10.8398 -15.5273 Z"/>
  </g>
 </g>
</svg>
